  0
SECTION
  2
HEADER
  9
$ACADVER
  1
AC1009
  9
$FILLMODE
 70
 0
  9
$SPLFRAME
 70
 1
  9
$EXTMIN
 10
0
 20
0
 30
0.0
  9
$EXTMAX
 10
41.6667
 20
41.6667
 30
0.0
  0
ENDSEC
  0
SECTION
  2
TABLES
  0
TABLE
  2
LAYER
 70
1
  0
LAYER
  2
0
 70
     0
 62
     7
  6
CONTINUOUS
  0
ENDTAB
  0
ENDSEC
  0
SECTION
  2
ENTITIES
  0
POLYLINE
  8
0
 62
     252
 66
     1
 10
0
 20
0
 30
0.0
 70
     1
 40
0.283465
 41
0.283465
  0
VERTEX
  8
0
 10
7.48031
 20
0.438097
 30
0.0
 40
0.00393701
 41
0.00393701
  0
VERTEX
  8
0
 10
7.48676
 20
0.438097
 30
0.0
 40
0.00393701
 41
0.00393701
  0
VERTEX
  8
0
 10
7.50612
 20
0.443197
 30
0.0
 40
0.00393701
 41
0.00393701
  0
VERTEX
  8
0
 10
7.52458
 20
0.456597
 30
0.0
 40
0.00393701
 41
0.00393701
  0
VERTEX
  8
0
 10
7.53564
 20
0.475478
 30
0.0
 40
0.00393701
 41
0.00393701
  0
VERTEX
  8
0
 10
7.53939
 20
0.497179
 30
0.0
 40
0.00393701
 41
0.00393701
  0
VERTEX
  8
0
 10
7.53564
 20
0.518881
 30
0.0
 40
0.00393701
 41
0.00393701
  0
VERTEX
  8
0
 10
7.52458
 20
0.537761
 30
0.0
 40
0.00393701
 41
0.00393701
  0
VERTEX
  8
0
 10
7.50612
 20
0.551161
 30
0.0
 40
0.00393701
 41
0.00393701
  0
VERTEX
  8
0
 10
7.48676
 20
0.556207
 30
0.0
 40
0.00393701
 41
0.00393701
  0
VERTEX
  8
0
 10
7.48031
 20
0.556207
 30
0.0
 40
0.00393701
 41
0.00393701
  0
VERTEX
  8
0
 10
7.47456
 20
0.556207
 30
0.0
 40
0.00393701
 41
0.00393701
  0
VERTEX
  8
0
 10
7.45731
 20
0.551594
 30
0.0
 40
0.00393701
 41
0.00393701
  0
VERTEX
  8
0
 10
7.43853
 20
0.538954
 30
0.0
 40
0.00393701
 41
0.00393701
  0
VERTEX
  8
0
 10
7.42589
 20
0.520182
 30
0.0
 40
0.00393701
 41
0.00393701
  0
VERTEX
  8
0
 10
7.42128
 20
0.502929
 30
0.0
 40
0.00393701
 41
0.00393701
  0
VERTEX
  8
0
 10
7.42128
 20
0.497179
 30
0.0
 40
0.00393701
 41
0.00393701
  0
VERTEX
  8
0
 10
7.42128
 20
0.491428
 30
0.0
 40
0.00393701
 41
0.00393701
  0
VERTEX
  8
0
 10
7.42589
 20
0.474175
 30
0.0
 40
0.00393701
 41
0.00393701
  0
VERTEX
  8
0
 10
7.43853
 20
0.455404
 30
0.0
 40
0.00393701
 41
0.00393701
  0
VERTEX
  8
0
 10
7.45731
 20
0.442763
 30
0.0
 40
0.00393701
 41
0.00393701
  0
VERTEX
  8
0
 10
7.47456
 20
0.438097
 30
0.0
 40
0.00393701
 41
0.00393701
  0
VERTEX
  8
0
 10
7.48031
 20
0.438097
 30
0.0
 40
0.00393701
 41
0.00393701
  0
SEQEND
 8
0
  0
POLYLINE
  8
0
 62
     252
 66
     1
 10
0
 20
0
 30
0.0
 70
     1
 40
0.283465
 41
0.283465
  0
VERTEX
  8
0
 10
10.6299
 20
3.58772
 30
0.0
 40
0.00393701
 41
0.00393701
  0
VERTEX
  8
0
 10
10.6356
 20
3.58772
 30
0.0
 40
0.00393701
 41
0.00393701
  0
VERTEX
  8
0
 10
10.6529
 20
3.59239
 30
0.0
 40
0.00393701
 41
0.00393701
  0
VERTEX
  8
0
 10
10.6717
 20
3.60504
 30
0.0
 40
0.00393701
 41
0.00393701
  0
VERTEX
  8
0
 10
10.6843
 20
3.62381
 30
0.0
 40
0.00393701
 41
0.00393701
  0
VERTEX
  8
0
 10
10.689
 20
3.64106
 30
0.0
 40
0.00393701
 41
0.00393701
  0
VERTEX
  8
0
 10
10.689
 20
3.64675
 30
0.0
 40
0.00393701
 41
0.00393701
  0
VERTEX
  8
0
 10
10.689
 20
3.6525
 30
0.0
 40
0.00393701
 41
0.00393701
  0
VERTEX
  8
0
 10
10.6843
 20
3.66976
 30
0.0
 40
0.00393701
 41
0.00393701
  0
VERTEX
  8
0
 10
10.6717
 20
3.68853
 30
0.0
 40
0.00393701
 41
0.00393701
  0
VERTEX
  8
0
 10
10.6529
 20
3.70122
 30
0.0
 40
0.00393701
 41
0.00393701
  0
VERTEX
  8
0
 10
10.6356
 20
3.70583
 30
0.0
 40
0.00393701
 41
0.00393701
  0
VERTEX
  8
0
 10
10.6299
 20
3.70583
 30
0.0
 40
0.00393701
 41
0.00393701
  0
VERTEX
  8
0
 10
10.6234
 20
3.70583
 30
0.0
 40
0.00393701
 41
0.00393701
  0
VERTEX
  8
0
 10
10.6041
 20
3.70079
 30
0.0
 40
0.00393701
 41
0.00393701
  0
VERTEX
  8
0
 10
10.5856
 20
3.68739
 30
0.0
 40
0.00393701
 41
0.00393701
  0
VERTEX
  8
0
 10
10.5745
 20
3.66851
 30
0.0
 40
0.00393701
 41
0.00393701
  0
VERTEX
  8
0
 10
10.5709
 20
3.64681
 30
0.0
 40
0.00393701
 41
0.00393701
  0
VERTEX
  8
0
 10
10.5745
 20
3.62511
 30
0.0
 40
0.00393701
 41
0.00393701
  0
VERTEX
  8
0
 10
10.5856
 20
3.60622
 30
0.0
 40
0.00393701
 41
0.00393701
  0
VERTEX
  8
0
 10
10.6041
 20
3.59283
 30
0.0
 40
0.00393701
 41
0.00393701
  0
VERTEX
  8
0
 10
10.6234
 20
3.58772
 30
0.0
 40
0.00393701
 41
0.00393701
  0
VERTEX
  8
0
 10
10.6299
 20
3.58772
 30
0.0
 40
0.00393701
 41
0.00393701
  0
SEQEND
 8
0
  0
POLYLINE
  8
0
 62
     252
 66
     1
 10
0
 20
0
 30
0.0
 70
     1
 40
0.283465
 41
0.283465
  0
VERTEX
  8
0
 10
10.6299
 20
0.438097
 30
0.0
 40
0.00393701
 41
0.00393701
  0
VERTEX
  8
0
 10
10.6364
 20
0.438097
 30
0.0
 40
0.00393701
 41
0.00393701
  0
VERTEX
  8
0
 10
10.6558
 20
0.443197
 30
0.0
 40
0.00393701
 41
0.00393701
  0
VERTEX
  8
0
 10
10.6742
 20
0.456597
 30
0.0
 40
0.00393701
 41
0.00393701
  0
VERTEX
  8
0
 10
10.6853
 20
0.475478
 30
0.0
 40
0.00393701
 41
0.00393701
  0
VERTEX
  8
0
 10
10.689
 20
0.497179
 30
0.0
 40
0.00393701
 41
0.00393701
  0
VERTEX
  8
0
 10
10.6853
 20
0.518881
 30
0.0
 40
0.00393701
 41
0.00393701
  0
VERTEX
  8
0
 10
10.6742
 20
0.537761
 30
0.0
 40
0.00393701
 41
0.00393701
  0
VERTEX
  8
0
 10
10.6558
 20
0.551161
 30
0.0
 40
0.00393701
 41
0.00393701
  0
VERTEX
  8
0
 10
10.6364
 20
0.556207
 30
0.0
 40
0.00393701
 41
0.00393701
  0
VERTEX
  8
0
 10
10.6299
 20
0.556207
 30
0.0
 40
0.00393701
 41
0.00393701
  0
VERTEX
  8
0
 10
10.6242
 20
0.556207
 30
0.0
 40
0.00393701
 41
0.00393701
  0
VERTEX
  8
0
 10
10.6069
 20
0.551594
 30
0.0
 40
0.00393701
 41
0.00393701
  0
VERTEX
  8
0
 10
10.5882
 20
0.538954
 30
0.0
 40
0.00393701
 41
0.00393701
  0
VERTEX
  8
0
 10
10.5755
 20
0.520182
 30
0.0
 40
0.00393701
 41
0.00393701
  0
VERTEX
  8
0
 10
10.5709
 20
0.502929
 30
0.0
 40
0.00393701
 41
0.00393701
  0
VERTEX
  8
0
 10
10.5709
 20
0.497179
 30
0.0
 40
0.00393701
 41
0.00393701
  0
VERTEX
  8
0
 10
10.5709
 20
0.491428
 30
0.0
 40
0.00393701
 41
0.00393701
  0
VERTEX
  8
0
 10
10.5755
 20
0.474175
 30
0.0
 40
0.00393701
 41
0.00393701
  0
VERTEX
  8
0
 10
10.5882
 20
0.455404
 30
0.0
 40
0.00393701
 41
0.00393701
  0
VERTEX
  8
0
 10
10.6069
 20
0.442763
 30
0.0
 40
0.00393701
 41
0.00393701
  0
VERTEX
  8
0
 10
10.6242
 20
0.438097
 30
0.0
 40
0.00393701
 41
0.00393701
  0
VERTEX
  8
0
 10
10.6299
 20
0.438097
 30
0.0
 40
0.00393701
 41
0.00393701
  0
SEQEND
 8
0
  0
POLYLINE
  8
0
 62
     252
 66
     1
 10
0
 20
0
 30
0.0
 70
     1
 40
0.283465
 41
0.283465
  0
VERTEX
  8
0
 10
7.48031
 20
3.58772
 30
0.0
 40
0.00393701
 41
0.00393701
  0
VERTEX
  8
0
 10
7.486
 20
3.58772
 30
0.0
 40
0.00393701
 41
0.00393701
  0
VERTEX
  8
0
 10
7.50325
 20
3.59239
 30
0.0
 40
0.00393701
 41
0.00393701
  0
VERTEX
  8
0
 10
7.52203
 20
3.60504
 30
0.0
 40
0.00393701
 41
0.00393701
  0
VERTEX
  8
0
 10
7.53472
 20
3.62381
 30
0.0
 40
0.00393701
 41
0.00393701
  0
VERTEX
  8
0
 10
7.53939
 20
3.64106
 30
0.0
 40
0.00393701
 41
0.00393701
  0
VERTEX
  8
0
 10
7.53939
 20
3.64675
 30
0.0
 40
0.00393701
 41
0.00393701
  0
VERTEX
  8
0
 10
7.53939
 20
3.6525
 30
0.0
 40
0.00393701
 41
0.00393701
  0
VERTEX
  8
0
 10
7.53472
 20
3.66976
 30
0.0
 40
0.00393701
 41
0.00393701
  0
VERTEX
  8
0
 10
7.52203
 20
3.68853
 30
0.0
 40
0.00393701
 41
0.00393701
  0
VERTEX
  8
0
 10
7.50325
 20
3.70122
 30
0.0
 40
0.00393701
 41
0.00393701
  0
VERTEX
  8
0
 10
7.486
 20
3.70583
 30
0.0
 40
0.00393701
 41
0.00393701
  0
VERTEX
  8
0
 10
7.48031
 20
3.70583
 30
0.0
 40
0.00393701
 41
0.00393701
  0
VERTEX
  8
0
 10
7.47379
 20
3.70583
 30
0.0
 40
0.00393701
 41
0.00393701
  0
VERTEX
  8
0
 10
7.45443
 20
3.70079
 30
0.0
 40
0.00393701
 41
0.00393701
  0
VERTEX
  8
0
 10
7.43599
 20
3.68739
 30
0.0
 40
0.00393701
 41
0.00393701
  0
VERTEX
  8
0
 10
7.42492
 20
3.66851
 30
0.0
 40
0.00393701
 41
0.00393701
  0
VERTEX
  8
0
 10
7.42122
 20
3.64681
 30
0.0
 40
0.00393701
 41
0.00393701
  0
VERTEX
  8
0
 10
7.42492
 20
3.62511
 30
0.0
 40
0.00393701
 41
0.00393701
  0
VERTEX
  8
0
 10
7.43599
 20
3.60622
 30
0.0
 40
0.00393701
 41
0.00393701
  0
VERTEX
  8
0
 10
7.45443
 20
3.59283
 30
0.0
 40
0.00393701
 41
0.00393701
  0
VERTEX
  8
0
 10
7.47379
 20
3.58772
 30
0.0
 40
0.00393701
 41
0.00393701
  0
VERTEX
  8
0
 10
7.48031
 20
3.58772
 30
0.0
 40
0.00393701
 41
0.00393701
  0
SEQEND
 8
0
  0
POLYLINE
  8
0
 62
     252
 66
     1
 10
0
 20
0
 30
0.0
 70
     1
 40
0.283465
 41
0.283465
  0
VERTEX
  8
0
 10
10.6299
 20
0.201878
 30
0.0
 40
0.00393701
 41
0.00393701
  0
VERTEX
  8
0
 10
10.6398
 20
0.201878
 30
0.0
 40
0.00393701
 41
0.00393701
  0
VERTEX
  8
0
 10
10.6696
 20
0.205892
 30
0.0
 40
0.00393701
 41
0.00393701
  0
VERTEX
  8
0
 10
10.7065
 20
0.217393
 30
0.0
 40
0.00393701
 41
0.00393701
  0
VERTEX
  8
0
 10
10.74
 20
0.235514
 30
0.0
 40
0.00393701
 41
0.00393701
  0
VERTEX
  8
0
 10
10.7691
 20
0.259549
 30
0.0
 40
0.00393701
 41
0.00393701
  0
VERTEX
  8
0
 10
10.7931
 20
0.288683
 30
0.0
 40
0.00393701
 41
0.00393701
  0
VERTEX
  8
0
 10
10.8112
 20
0.322157
 30
0.0
 40
0.00393701
 41
0.00393701
  0
VERTEX
  8
0
 10
10.8227
 20
0.359104
 30
0.0
 40
0.00393701
 41
0.00393701
  0
VERTEX
  8
0
 10
10.8268
 20
0.388835
 30
0.0
 40
0.00393701
 41
0.00393701
  0
VERTEX
  8
0
 10
10.8268
 20
0.398708
 30
0.0
 40
0.00393701
 41
0.00393701
  0
VERTEX
  8
0
 10
10.8268
 20
3.74517
 30
0.0
 40
0.00393701
 41
0.00393701
  0
VERTEX
  8
0
 10
10.8268
 20
3.7551
 30
0.0
 40
0.00393701
 41
0.00393701
  0
VERTEX
  8
0
 10
10.8227
 20
3.78489
 30
0.0
 40
0.00393701
 41
0.00393701
  0
VERTEX
  8
0
 10
10.8112
 20
3.82183
 30
0.0
 40
0.00393701
 41
0.00393701
  0
VERTEX
  8
0
 10
10.7931
 20
3.85525
 30
0.0
 40
0.00393701
 41
0.00393701
  0
VERTEX
  8
0
 10
10.7691
 20
3.88439
 30
0.0
 40
0.00393701
 41
0.00393701
  0
VERTEX
  8
0
 10
10.74
 20
3.90847
 30
0.0
 40
0.00393701
 41
0.00393701
  0
VERTEX
  8
0
 10
10.7065
 20
3.9266
 30
0.0
 40
0.00393701
 41
0.00393701
  0
VERTEX
  8
0
 10
10.6696
 20
3.9381
 30
0.0
 40
0.00393701
 41
0.00393701
  0
VERTEX
  8
0
 10
10.6398
 20
3.94206
 30
0.0
 40
0.00393701
 41
0.00393701
  0
VERTEX
  8
0
 10
10.6299
 20
3.94206
 30
0.0
 40
0.00393701
 41
0.00393701
  0
VERTEX
  8
0
 10
6.69293
 20
3.94206
 30
0.0
 40
0.00393701
 41
0.00393701
  0
VERTEX
  8
0
 10
6.683
 20
3.94206
 30
0.0
 40
0.00393701
 41
0.00393701
  0
VERTEX
  8
0
 10
6.65321
 20
3.9381
 30
0.0
 40
0.00393701
 41
0.00393701
  0
VERTEX
  8
0
 10
6.61626
 20
3.9266
 30
0.0
 40
0.00393701
 41
0.00393701
  0
VERTEX
  8
0
 10
6.58285
 20
3.90847
 30
0.0
 40
0.00393701
 41
0.00393701
  0
VERTEX
  8
0
 10
6.55371
 20
3.88439
 30
0.0
 40
0.00393701
 41
0.00393701
  0
VERTEX
  8
0
 10
6.52962
 20
3.85525
 30
0.0
 40
0.00393701
 41
0.00393701
  0
VERTEX
  8
0
 10
6.5115
 20
3.82183
 30
0.0
 40
0.00393701
 41
0.00393701
  0
VERTEX
  8
0
 10
6.5
 20
3.78489
 30
0.0
 40
0.00393701
 41
0.00393701
  0
VERTEX
  8
0
 10
6.49604
 20
3.7551
 30
0.0
 40
0.00393701
 41
0.00393701
  0
VERTEX
  8
0
 10
6.49604
 20
3.74517
 30
0.0
 40
0.00393701
 41
0.00393701
  0
VERTEX
  8
0
 10
6.49604
 20
0.398708
 30
0.0
 40
0.00393701
 41
0.00393701
  0
VERTEX
  8
0
 10
6.49604
 20
0.388835
 30
0.0
 40
0.00393701
 41
0.00393701
  0
VERTEX
  8
0
 10
6.5
 20
0.359104
 30
0.0
 40
0.00393701
 41
0.00393701
  0
VERTEX
  8
0
 10
6.5115
 20
0.322157
 30
0.0
 40
0.00393701
 41
0.00393701
  0
VERTEX
  8
0
 10
6.52962
 20
0.288683
 30
0.0
 40
0.00393701
 41
0.00393701
  0
VERTEX
  8
0
 10
6.55371
 20
0.259549
 30
0.0
 40
0.00393701
 41
0.00393701
  0
VERTEX
  8
0
 10
6.58285
 20
0.235514
 30
0.0
 40
0.00393701
 41
0.00393701
  0
VERTEX
  8
0
 10
6.61626
 20
0.217393
 30
0.0
 40
0.00393701
 41
0.00393701
  0
VERTEX
  8
0
 10
6.65321
 20
0.205892
 30
0.0
 40
0.00393701
 41
0.00393701
  0
VERTEX
  8
0
 10
6.683
 20
0.201878
 30
0.0
 40
0.00393701
 41
0.00393701
  0
VERTEX
  8
0
 10
6.69293
 20
0.201878
 30
0.0
 40
0.00393701
 41
0.00393701
  0
VERTEX
  8
0
 10
10.6299
 20
0.201878
 30
0.0
 40
0.00393701
 41
0.00393701
  0
SEQEND
 8
0
  0
POLYLINE
  8
0
 62
     252
 66
     1
 10
0
 20
0
 30
0.0
 70
     1
 40
0.283465
 41
0.283465
  0
VERTEX
  8
0
 10
0.413411
 20
2.02192
 30
0.0
 40
0.00393701
 41
0.00393701
  0
VERTEX
  8
0
 10
0.413411
 20
2.01622
 30
0.0
 40
0.00393701
 41
0.00393701
  0
VERTEX
  8
0
 10
0.418024
 20
1.99897
 30
0.0
 40
0.00393701
 41
0.00393701
  0
VERTEX
  8
0
 10
0.430664
 20
1.98019
 30
0.0
 40
0.00393701
 41
0.00393701
  0
VERTEX
  8
0
 10
0.449436
 20
1.9675
 30
0.0
 40
0.00393701
 41
0.00393701
  0
VERTEX
  8
0
 10
0.466689
 20
1.96283
 30
0.0
 40
0.00393701
 41
0.00393701
  0
VERTEX
  8
0
 10
0.472439
 20
1.96283
 30
0.0
 40
0.00393701
 41
0.00393701
  0
VERTEX
  8
0
 10
0.478136
 20
1.96283
 30
0.0
 40
0.00393701
 41
0.00393701
  0
VERTEX
  8
0
 10
0.495389
 20
1.9675
 30
0.0
 40
0.00393701
 41
0.00393701
  0
VERTEX
  8
0
 10
0.51416
 20
1.98019
 30
0.0
 40
0.00393701
 41
0.00393701
  0
VERTEX
  8
0
 10
0.526856
 20
1.99897
 30
0.0
 40
0.00393701
 41
0.00393701
  0
VERTEX
  8
0
 10
0.531521
 20
2.01622
 30
0.0
 40
0.00393701
 41
0.00393701
  0
VERTEX
  8
0
 10
0.531521
 20
2.02192
 30
0.0
 40
0.00393701
 41
0.00393701
  0
VERTEX
  8
0
 10
0.531521
 20
2.02843
 30
0.0
 40
0.00393701
 41
0.00393701
  0
VERTEX
  8
0
 10
0.526421
 20
2.04779
 30
0.0
 40
0.00393701
 41
0.00393701
  0
VERTEX
  8
0
 10
0.513021
 20
2.06625
 30
0.0
 40
0.00393701
 41
0.00393701
  0
VERTEX
  8
0
 10
0.49414
 20
2.07731
 30
0.0
 40
0.00393701
 41
0.00393701
  0
VERTEX
  8
0
 10
0.472439
 20
2.081
 30
0.0
 40
0.00393701
 41
0.00393701
  0
VERTEX
  8
0
 10
0.450737
 20
2.07731
 30
0.0
 40
0.00393701
 41
0.00393701
  0
VERTEX
  8
0
 10
0.431858
 20
2.06625
 30
0.0
 40
0.00393701
 41
0.00393701
  0
VERTEX
  8
0
 10
0.418457
 20
2.04779
 30
0.0
 40
0.00393701
 41
0.00393701
  0
VERTEX
  8
0
 10
0.413411
 20
2.02843
 30
0.0
 40
0.00393701
 41
0.00393701
  0
VERTEX
  8
0
 10
0.413411
 20
2.02192
 30
0.0
 40
0.00393701
 41
0.00393701
  0
SEQEND
 8
0
  0
POLYLINE
  8
0
 62
     252
 66
     1
 10
0
 20
0
 30
0.0
 70
     1
 40
0.283465
 41
0.283465
  0
VERTEX
  8
0
 10
3.89762
 20
1.77669
 30
0.0
 40
0.00393701
 41
0.00393701
  0
VERTEX
  8
0
 10
3.89762
 20
3.54833
 30
0.0
 40
0.00393701
 41
0.00393701
  0
VERTEX
  8
0
 10
3.89762
 20
3.55485
 30
0.0
 40
0.00393701
 41
0.00393701
  0
VERTEX
  8
0
 10
3.89253
 20
3.57422
 30
0.0
 40
0.00393701
 41
0.00393701
  0
VERTEX
  8
0
 10
3.87912
 20
3.59267
 30
0.0
 40
0.00393701
 41
0.00393701
  0
VERTEX
  8
0
 10
3.86025
 20
3.60374
 30
0.0
 40
0.00393701
 41
0.00393701
  0
VERTEX
  8
0
 10
3.83854
 20
3.60742
 30
0.0
 40
0.00393701
 41
0.00393701
  0
VERTEX
  8
0
 10
3.81685
 20
3.60374
 30
0.0
 40
0.00393701
 41
0.00393701
  0
VERTEX
  8
0
 10
3.79796
 20
3.59267
 30
0.0
 40
0.00393701
 41
0.00393701
  0
VERTEX
  8
0
 10
3.78456
 20
3.57422
 30
0.0
 40
0.00393701
 41
0.00393701
  0
VERTEX
  8
0
 10
3.77951
 20
3.55485
 30
0.0
 40
0.00393701
 41
0.00393701
  0
VERTEX
  8
0
 10
3.77951
 20
3.54833
 30
0.0
 40
0.00393701
 41
0.00393701
  0
VERTEX
  8
0
 10
3.77951
 20
1.77669
 30
0.0
 40
0.00393701
 41
0.00393701
  0
VERTEX
  8
0
 10
3.77951
 20
1.77024
 30
0.0
 40
0.00393701
 41
0.00393701
  0
VERTEX
  8
0
 10
3.78456
 20
1.75088
 30
0.0
 40
0.00393701
 41
0.00393701
  0
VERTEX
  8
0
 10
3.79796
 20
1.73242
 30
0.0
 40
0.00393701
 41
0.00393701
  0
VERTEX
  8
0
 10
3.81685
 20
1.72136
 30
0.0
 40
0.00393701
 41
0.00393701
  0
VERTEX
  8
0
 10
3.83854
 20
1.71767
 30
0.0
 40
0.00393701
 41
0.00393701
  0
VERTEX
  8
0
 10
3.86025
 20
1.72136
 30
0.0
 40
0.00393701
 41
0.00393701
  0
VERTEX
  8
0
 10
3.87912
 20
1.73242
 30
0.0
 40
0.00393701
 41
0.00393701
  0
VERTEX
  8
0
 10
3.89253
 20
1.75088
 30
0.0
 40
0.00393701
 41
0.00393701
  0
VERTEX
  8
0
 10
3.89762
 20
1.77024
 30
0.0
 40
0.00393701
 41
0.00393701
  0
VERTEX
  8
0
 10
3.89762
 20
1.77669
 30
0.0
 40
0.00393701
 41
0.00393701
  0
SEQEND
 8
0
  0
POLYLINE
  8
0
 62
     252
 66
     1
 10
0
 20
0
 30
0.0
 70
     1
 40
0.283465
 41
0.283465
  0
VERTEX
  8
0
 10
2.79531
 20
1.77669
 30
0.0
 40
0.00393701
 41
0.00393701
  0
VERTEX
  8
0
 10
2.79531
 20
3.54833
 30
0.0
 40
0.00393701
 41
0.00393701
  0
VERTEX
  8
0
 10
2.79531
 20
3.55485
 30
0.0
 40
0.00393701
 41
0.00393701
  0
VERTEX
  8
0
 10
2.79021
 20
3.57422
 30
0.0
 40
0.00393701
 41
0.00393701
  0
VERTEX
  8
0
 10
2.77681
 20
3.59267
 30
0.0
 40
0.00393701
 41
0.00393701
  0
VERTEX
  8
0
 10
2.75792
 20
3.60374
 30
0.0
 40
0.00393701
 41
0.00393701
  0
VERTEX
  8
0
 10
2.73622
 20
3.60742
 30
0.0
 40
0.00393701
 41
0.00393701
  0
VERTEX
  8
0
 10
2.71451
 20
3.60374
 30
0.0
 40
0.00393701
 41
0.00393701
  0
VERTEX
  8
0
 10
2.69564
 20
3.59267
 30
0.0
 40
0.00393701
 41
0.00393701
  0
VERTEX
  8
0
 10
2.68224
 20
3.57422
 30
0.0
 40
0.00393701
 41
0.00393701
  0
VERTEX
  8
0
 10
2.67719
 20
3.55485
 30
0.0
 40
0.00393701
 41
0.00393701
  0
VERTEX
  8
0
 10
2.67719
 20
3.54833
 30
0.0
 40
0.00393701
 41
0.00393701
  0
VERTEX
  8
0
 10
2.67719
 20
1.77669
 30
0.0
 40
0.00393701
 41
0.00393701
  0
VERTEX
  8
0
 10
2.67719
 20
1.77024
 30
0.0
 40
0.00393701
 41
0.00393701
  0
VERTEX
  8
0
 10
2.68224
 20
1.75088
 30
0.0
 40
0.00393701
 41
0.00393701
  0
VERTEX
  8
0
 10
2.69564
 20
1.73242
 30
0.0
 40
0.00393701
 41
0.00393701
  0
VERTEX
  8
0
 10
2.71451
 20
1.72136
 30
0.0
 40
0.00393701
 41
0.00393701
  0
VERTEX
  8
0
 10
2.73622
 20
1.71767
 30
0.0
 40
0.00393701
 41
0.00393701
  0
VERTEX
  8
0
 10
2.75792
 20
1.72136
 30
0.0
 40
0.00393701
 41
0.00393701
  0
VERTEX
  8
0
 10
2.77681
 20
1.73242
 30
0.0
 40
0.00393701
 41
0.00393701
  0
VERTEX
  8
0
 10
2.79021
 20
1.75088
 30
0.0
 40
0.00393701
 41
0.00393701
  0
VERTEX
  8
0
 10
2.79531
 20
1.77024
 30
0.0
 40
0.00393701
 41
0.00393701
  0
VERTEX
  8
0
 10
2.79531
 20
1.77669
 30
0.0
 40
0.00393701
 41
0.00393701
  0
SEQEND
 8
0
  0
POLYLINE
  8
0
 62
     252
 66
     1
 10
0
 20
0
 30
0.0
 70
     1
 40
0.283465
 41
0.283465
  0
VERTEX
  8
0
 10
1.85038
 20
3.54833
 30
0.0
 40
0.00393701
 41
0.00393701
  0
VERTEX
  8
0
 10
1.85038
 20
3.55485
 30
0.0
 40
0.00393701
 41
0.00393701
  0
VERTEX
  8
0
 10
1.85542
 20
3.57422
 30
0.0
 40
0.00393701
 41
0.00393701
  0
VERTEX
  8
0
 10
1.86882
 20
3.59267
 30
0.0
 40
0.00393701
 41
0.00393701
  0
VERTEX
  8
0
 10
1.88769
 20
3.60374
 30
0.0
 40
0.00393701
 41
0.00393701
  0
VERTEX
  8
0
 10
1.9094
 20
3.60742
 30
0.0
 40
0.00393701
 41
0.00393701
  0
VERTEX
  8
0
 10
1.9311
 20
3.60374
 30
0.0
 40
0.00393701
 41
0.00393701
  0
VERTEX
  8
0
 10
1.94997
 20
3.59267
 30
0.0
 40
0.00393701
 41
0.00393701
  0
VERTEX
  8
0
 10
1.96338
 20
3.57422
 30
0.0
 40
0.00393701
 41
0.00393701
  0
VERTEX
  8
0
 10
1.96847
 20
3.55485
 30
0.0
 40
0.00393701
 41
0.00393701
  0
VERTEX
  8
0
 10
1.96847
 20
3.54833
 30
0.0
 40
0.00393701
 41
0.00393701
  0
VERTEX
  8
0
 10
1.96847
 20
1.77669
 30
0.0
 40
0.00393701
 41
0.00393701
  0
VERTEX
  8
0
 10
1.96847
 20
1.77024
 30
0.0
 40
0.00393701
 41
0.00393701
  0
VERTEX
  8
0
 10
1.96338
 20
1.75088
 30
0.0
 40
0.00393701
 41
0.00393701
  0
VERTEX
  8
0
 10
1.94997
 20
1.73242
 30
0.0
 40
0.00393701
 41
0.00393701
  0
VERTEX
  8
0
 10
1.9311
 20
1.72136
 30
0.0
 40
0.00393701
 41
0.00393701
  0
VERTEX
  8
0
 10
1.9094
 20
1.71767
 30
0.0
 40
0.00393701
 41
0.00393701
  0
VERTEX
  8
0
 10
1.88769
 20
1.72136
 30
0.0
 40
0.00393701
 41
0.00393701
  0
VERTEX
  8
0
 10
1.86882
 20
1.73242
 30
0.0
 40
0.00393701
 41
0.00393701
  0
VERTEX
  8
0
 10
1.85542
 20
1.75088
 30
0.0
 40
0.00393701
 41
0.00393701
  0
VERTEX
  8
0
 10
1.85038
 20
1.77024
 30
0.0
 40
0.00393701
 41
0.00393701
  0
VERTEX
  8
0
 10
1.85038
 20
1.77669
 30
0.0
 40
0.00393701
 41
0.00393701
  0
VERTEX
  8
0
 10
1.85038
 20
3.54833
 30
0.0
 40
0.00393701
 41
0.00393701
  0
SEQEND
 8
0
  0
POLYLINE
  8
0
 62
     252
 66
     1
 10
0
 20
0
 30
0.0
 70
     1
 40
0.283465
 41
0.283465
  0
VERTEX
  8
0
 10
3.07086
 20
1.77669
 30
0.0
 40
0.00393701
 41
0.00393701
  0
VERTEX
  8
0
 10
3.07086
 20
3.54833
 30
0.0
 40
0.00393701
 41
0.00393701
  0
VERTEX
  8
0
 10
3.07086
 20
3.55485
 30
0.0
 40
0.00393701
 41
0.00393701
  0
VERTEX
  8
0
 10
3.06575
 20
3.57422
 30
0.0
 40
0.00393701
 41
0.00393701
  0
VERTEX
  8
0
 10
3.05236
 20
3.59267
 30
0.0
 40
0.00393701
 41
0.00393701
  0
VERTEX
  8
0
 10
3.03347
 20
3.60374
 30
0.0
 40
0.00393701
 41
0.00393701
  0
VERTEX
  8
0
 10
3.01178
 20
3.60742
 30
0.0
 40
0.00393701
 41
0.00393701
  0
VERTEX
  8
0
 10
2.99007
 20
3.60374
 30
0.0
 40
0.00393701
 41
0.00393701
  0
VERTEX
  8
0
 10
2.97119
 20
3.59267
 30
0.0
 40
0.00393701
 41
0.00393701
  0
VERTEX
  8
0
 10
2.95779
 20
3.57422
 30
0.0
 40
0.00393701
 41
0.00393701
  0
VERTEX
  8
0
 10
2.95275
 20
3.55485
 30
0.0
 40
0.00393701
 41
0.00393701
  0
VERTEX
  8
0
 10
2.95275
 20
3.54833
 30
0.0
 40
0.00393701
 41
0.00393701
  0
VERTEX
  8
0
 10
2.95275
 20
1.77669
 30
0.0
 40
0.00393701
 41
0.00393701
  0
VERTEX
  8
0
 10
2.95275
 20
1.77024
 30
0.0
 40
0.00393701
 41
0.00393701
  0
VERTEX
  8
0
 10
2.95779
 20
1.75088
 30
0.0
 40
0.00393701
 41
0.00393701
  0
VERTEX
  8
0
 10
2.97119
 20
1.73242
 30
0.0
 40
0.00393701
 41
0.00393701
  0
VERTEX
  8
0
 10
2.99007
 20
1.72136
 30
0.0
 40
0.00393701
 41
0.00393701
  0
VERTEX
  8
0
 10
3.01178
 20
1.71767
 30
0.0
 40
0.00393701
 41
0.00393701
  0
VERTEX
  8
0
 10
3.03347
 20
1.72136
 30
0.0
 40
0.00393701
 41
0.00393701
  0
VERTEX
  8
0
 10
3.05236
 20
1.73242
 30
0.0
 40
0.00393701
 41
0.00393701
  0
VERTEX
  8
0
 10
3.06575
 20
1.75088
 30
0.0
 40
0.00393701
 41
0.00393701
  0
VERTEX
  8
0
 10
3.07086
 20
1.77024
 30
0.0
 40
0.00393701
 41
0.00393701
  0
VERTEX
  8
0
 10
3.07086
 20
1.77669
 30
0.0
 40
0.00393701
 41
0.00393701
  0
SEQEND
 8
0
  0
POLYLINE
  8
0
 62
     252
 66
     1
 10
0
 20
0
 30
0.0
 70
     1
 40
0.283465
 41
0.283465
  0
VERTEX
  8
0
 10
4.17324
 20
1.77669
 30
0.0
 40
0.00393701
 41
0.00393701
  0
VERTEX
  8
0
 10
4.17324
 20
3.54833
 30
0.0
 40
0.00393701
 41
0.00393701
  0
VERTEX
  8
0
 10
4.17324
 20
3.55485
 30
0.0
 40
0.00393701
 41
0.00393701
  0
VERTEX
  8
0
 10
4.16813
 20
3.57422
 30
0.0
 40
0.00393701
 41
0.00393701
  0
VERTEX
  8
0
 10
4.15474
 20
3.59267
 30
0.0
 40
0.00393701
 41
0.00393701
  0
VERTEX
  8
0
 10
4.13585
 20
3.60374
 30
0.0
 40
0.00393701
 41
0.00393701
  0
VERTEX
  8
0
 10
4.11415
 20
3.60742
 30
0.0
 40
0.00393701
 41
0.00393701
  0
VERTEX
  8
0
 10
4.09244
 20
3.60374
 30
0.0
 40
0.00393701
 41
0.00393701
  0
VERTEX
  8
0
 10
4.07357
 20
3.59267
 30
0.0
 40
0.00393701
 41
0.00393701
  0
VERTEX
  8
0
 10
4.06017
 20
3.57422
 30
0.0
 40
0.00393701
 41
0.00393701
  0
VERTEX
  8
0
 10
4.05512
 20
3.55485
 30
0.0
 40
0.00393701
 41
0.00393701
  0
VERTEX
  8
0
 10
4.05512
 20
3.54833
 30
0.0
 40
0.00393701
 41
0.00393701
  0
VERTEX
  8
0
 10
4.05512
 20
1.77669
 30
0.0
 40
0.00393701
 41
0.00393701
  0
VERTEX
  8
0
 10
4.05512
 20
1.77024
 30
0.0
 40
0.00393701
 41
0.00393701
  0
VERTEX
  8
0
 10
4.06017
 20
1.75088
 30
0.0
 40
0.00393701
 41
0.00393701
  0
VERTEX
  8
0
 10
4.07357
 20
1.73242
 30
0.0
 40
0.00393701
 41
0.00393701
  0
VERTEX
  8
0
 10
4.09244
 20
1.72136
 30
0.0
 40
0.00393701
 41
0.00393701
  0
VERTEX
  8
0
 10
4.11415
 20
1.71767
 30
0.0
 40
0.00393701
 41
0.00393701
  0
VERTEX
  8
0
 10
4.13585
 20
1.72136
 30
0.0
 40
0.00393701
 41
0.00393701
  0
VERTEX
  8
0
 10
4.15474
 20
1.73242
 30
0.0
 40
0.00393701
 41
0.00393701
  0
VERTEX
  8
0
 10
4.16813
 20
1.75088
 30
0.0
 40
0.00393701
 41
0.00393701
  0
VERTEX
  8
0
 10
4.17324
 20
1.77024
 30
0.0
 40
0.00393701
 41
0.00393701
  0
VERTEX
  8
0
 10
4.17324
 20
1.77669
 30
0.0
 40
0.00393701
 41
0.00393701
  0
SEQEND
 8
0
  0
POLYLINE
  8
0
 62
     252
 66
     1
 10
0
 20
0
 30
0.0
 70
     1
 40
0.283465
 41
0.283465
  0
VERTEX
  8
0
 10
5.76774
 20
2.49436
 30
0.0
 40
0.00393701
 41
0.00393701
  0
VERTEX
  8
0
 10
5.76774
 20
2.4879
 30
0.0
 40
0.00393701
 41
0.00393701
  0
VERTEX
  8
0
 10
5.77279
 20
2.46853
 30
0.0
 40
0.00393701
 41
0.00393701
  0
VERTEX
  8
0
 10
5.78618
 20
2.45008
 30
0.0
 40
0.00393701
 41
0.00393701
  0
VERTEX
  8
0
 10
5.80507
 20
2.43901
 30
0.0
 40
0.00393701
 41
0.00393701
  0
VERTEX
  8
0
 10
5.82676
 20
2.43533
 30
0.0
 40
0.00393701
 41
0.00393701
  0
VERTEX
  8
0
 10
5.84847
 20
2.43901
 30
0.0
 40
0.00393701
 41
0.00393701
  0
VERTEX
  8
0
 10
5.86735
 20
2.45008
 30
0.0
 40
0.00393701
 41
0.00393701
  0
VERTEX
  8
0
 10
5.88075
 20
2.46853
 30
0.0
 40
0.00393701
 41
0.00393701
  0
VERTEX
  8
0
 10
5.88585
 20
2.4879
 30
0.0
 40
0.00393701
 41
0.00393701
  0
VERTEX
  8
0
 10
5.88585
 20
2.49436
 30
0.0
 40
0.00393701
 41
0.00393701
  0
VERTEX
  8
0
 10
5.88585
 20
2.50011
 30
0.0
 40
0.00393701
 41
0.00393701
  0
VERTEX
  8
0
 10
5.88118
 20
2.51736
 30
0.0
 40
0.00393701
 41
0.00393701
  0
VERTEX
  8
0
 10
5.86849
 20
2.53614
 30
0.0
 40
0.00393701
 41
0.00393701
  0
VERTEX
  8
0
 10
5.84972
 20
2.54878
 30
0.0
 40
0.00393701
 41
0.00393701
  0
VERTEX
  8
0
 10
5.83247
 20
2.55339
 30
0.0
 40
0.00393701
 41
0.00393701
  0
VERTEX
  8
0
 10
5.82676
 20
2.55339
 30
0.0
 40
0.00393701
 41
0.00393701
  0
VERTEX
  8
0
 10
5.82101
 20
2.55339
 30
0.0
 40
0.00393701
 41
0.00393701
  0
VERTEX
  8
0
 10
5.80376
 20
2.54878
 30
0.0
 40
0.00393701
 41
0.00393701
  0
VERTEX
  8
0
 10
5.785
 20
2.53614
 30
0.0
 40
0.00393701
 41
0.00393701
  0
VERTEX
  8
0
 10
5.77235
 20
2.51736
 30
0.0
 40
0.00393701
 41
0.00393701
  0
VERTEX
  8
0
 10
5.76774
 20
2.50011
 30
0.0
 40
0.00393701
 41
0.00393701
  0
VERTEX
  8
0
 10
5.76774
 20
2.49436
 30
0.0
 40
0.00393701
 41
0.00393701
  0
SEQEND
 8
0
  0
POLYLINE
  8
0
 62
     252
 66
     1
 10
0
 20
0
 30
0.0
 70
     1
 40
0.283465
 41
0.283465
  0
VERTEX
  8
0
 10
0.413411
 20
2.49436
 30
0.0
 40
0.00393701
 41
0.00393701
  0
VERTEX
  8
0
 10
0.413411
 20
2.48867
 30
0.0
 40
0.00393701
 41
0.00393701
  0
VERTEX
  8
0
 10
0.418024
 20
2.4714
 30
0.0
 40
0.00393701
 41
0.00393701
  0
VERTEX
  8
0
 10
0.430664
 20
2.45264
 30
0.0
 40
0.00393701
 41
0.00393701
  0
VERTEX
  8
0
 10
0.449436
 20
2.43994
 30
0.0
 40
0.00393701
 41
0.00393701
  0
VERTEX
  8
0
 10
0.466689
 20
2.43528
 30
0.0
 40
0.00393701
 41
0.00393701
  0
VERTEX
  8
0
 10
0.472439
 20
2.43528
 30
0.0
 40
0.00393701
 41
0.00393701
  0
VERTEX
  8
0
 10
0.478136
 20
2.43528
 30
0.0
 40
0.00393701
 41
0.00393701
  0
VERTEX
  8
0
 10
0.495389
 20
2.43994
 30
0.0
 40
0.00393701
 41
0.00393701
  0
VERTEX
  8
0
 10
0.51416
 20
2.45264
 30
0.0
 40
0.00393701
 41
0.00393701
  0
VERTEX
  8
0
 10
0.526856
 20
2.4714
 30
0.0
 40
0.00393701
 41
0.00393701
  0
VERTEX
  8
0
 10
0.531521
 20
2.48867
 30
0.0
 40
0.00393701
 41
0.00393701
  0
VERTEX
  8
0
 10
0.531521
 20
2.49436
 30
0.0
 40
0.00393701
 41
0.00393701
  0
VERTEX
  8
0
 10
0.531521
 20
2.50088
 30
0.0
 40
0.00393701
 41
0.00393701
  0
VERTEX
  8
0
 10
0.526421
 20
2.52024
 30
0.0
 40
0.00393701
 41
0.00393701
  0
VERTEX
  8
0
 10
0.513021
 20
2.53868
 30
0.0
 40
0.00393701
 41
0.00393701
  0
VERTEX
  8
0
 10
0.49414
 20
2.54975
 30
0.0
 40
0.00393701
 41
0.00393701
  0
VERTEX
  8
0
 10
0.472439
 20
2.55344
 30
0.0
 40
0.00393701
 41
0.00393701
  0
VERTEX
  8
0
 10
0.450737
 20
2.54975
 30
0.0
 40
0.00393701
 41
0.00393701
  0
VERTEX
  8
0
 10
0.431858
 20
2.53868
 30
0.0
 40
0.00393701
 41
0.00393701
  0
VERTEX
  8
0
 10
0.418457
 20
2.52024
 30
0.0
 40
0.00393701
 41
0.00393701
  0
VERTEX
  8
0
 10
0.413411
 20
2.50088
 30
0.0
 40
0.00393701
 41
0.00393701
  0
VERTEX
  8
0
 10
0.413411
 20
2.49436
 30
0.0
 40
0.00393701
 41
0.00393701
  0
SEQEND
 8
0
  0
POLYLINE
  8
0
 62
     252
 66
     1
 10
0
 20
0
 30
0.0
 70
     1
 40
0.283465
 41
0.283465
  0
VERTEX
  8
0
 10
3.62207
 20
1.77669
 30
0.0
 40
0.00393701
 41
0.00393701
  0
VERTEX
  8
0
 10
3.62207
 20
3.54833
 30
0.0
 40
0.00393701
 41
0.00393701
  0
VERTEX
  8
0
 10
3.62207
 20
3.55485
 30
0.0
 40
0.00393701
 41
0.00393701
  0
VERTEX
  8
0
 10
3.61697
 20
3.57422
 30
0.0
 40
0.00393701
 41
0.00393701
  0
VERTEX
  8
0
 10
3.60357
 20
3.59267
 30
0.0
 40
0.00393701
 41
0.00393701
  0
VERTEX
  8
0
 10
3.58469
 20
3.60374
 30
0.0
 40
0.00393701
 41
0.00393701
  0
VERTEX
  8
0
 10
3.56299
 20
3.60742
 30
0.0
 40
0.00393701
 41
0.00393701
  0
VERTEX
  8
0
 10
3.54129
 20
3.60374
 30
0.0
 40
0.00393701
 41
0.00393701
  0
VERTEX
  8
0
 10
3.5224
 20
3.59267
 30
0.0
 40
0.00393701
 41
0.00393701
  0
VERTEX
  8
0
 10
3.509
 20
3.57422
 30
0.0
 40
0.00393701
 41
0.00393701
  0
VERTEX
  8
0
 10
3.50396
 20
3.55485
 30
0.0
 40
0.00393701
 41
0.00393701
  0
VERTEX
  8
0
 10
3.50396
 20
3.54833
 30
0.0
 40
0.00393701
 41
0.00393701
  0
VERTEX
  8
0
 10
3.50396
 20
1.77669
 30
0.0
 40
0.00393701
 41
0.00393701
  0
VERTEX
  8
0
 10
3.50396
 20
1.77024
 30
0.0
 40
0.00393701
 41
0.00393701
  0
VERTEX
  8
0
 10
3.509
 20
1.75088
 30
0.0
 40
0.00393701
 41
0.00393701
  0
VERTEX
  8
0
 10
3.5224
 20
1.73242
 30
0.0
 40
0.00393701
 41
0.00393701
  0
VERTEX
  8
0
 10
3.54129
 20
1.72136
 30
0.0
 40
0.00393701
 41
0.00393701
  0
VERTEX
  8
0
 10
3.56299
 20
1.71767
 30
0.0
 40
0.00393701
 41
0.00393701
  0
VERTEX
  8
0
 10
3.58469
 20
1.72136
 30
0.0
 40
0.00393701
 41
0.00393701
  0
VERTEX
  8
0
 10
3.60357
 20
1.73242
 30
0.0
 40
0.00393701
 41
0.00393701
  0
VERTEX
  8
0
 10
3.61697
 20
1.75088
 30
0.0
 40
0.00393701
 41
0.00393701
  0
VERTEX
  8
0
 10
3.62207
 20
1.77024
 30
0.0
 40
0.00393701
 41
0.00393701
  0
VERTEX
  8
0
 10
3.62207
 20
1.77669
 30
0.0
 40
0.00393701
 41
0.00393701
  0
SEQEND
 8
0
  0
POLYLINE
  8
0
 62
     252
 66
     1
 10
0
 20
0
 30
0.0
 70
     1
 40
0.283465
 41
0.283465
  0
VERTEX
  8
0
 10
2.51969
 20
1.77669
 30
0.0
 40
0.00393701
 41
0.00393701
  0
VERTEX
  8
0
 10
2.51969
 20
3.54833
 30
0.0
 40
0.00393701
 41
0.00393701
  0
VERTEX
  8
0
 10
2.51969
 20
3.55485
 30
0.0
 40
0.00393701
 41
0.00393701
  0
VERTEX
  8
0
 10
2.5146
 20
3.57422
 30
0.0
 40
0.00393701
 41
0.00393701
  0
VERTEX
  8
0
 10
2.50119
 20
3.59267
 30
0.0
 40
0.00393701
 41
0.00393701
  0
VERTEX
  8
0
 10
2.48232
 20
3.60374
 30
0.0
 40
0.00393701
 41
0.00393701
  0
VERTEX
  8
0
 10
2.46061
 20
3.60742
 30
0.0
 40
0.00393701
 41
0.00393701
  0
VERTEX
  8
0
 10
2.43892
 20
3.60374
 30
0.0
 40
0.00393701
 41
0.00393701
  0
VERTEX
  8
0
 10
2.42003
 20
3.59267
 30
0.0
 40
0.00393701
 41
0.00393701
  0
VERTEX
  8
0
 10
2.40662
 20
3.57422
 30
0.0
 40
0.00393701
 41
0.00393701
  0
VERTEX
  8
0
 10
2.40158
 20
3.55485
 30
0.0
 40
0.00393701
 41
0.00393701
  0
VERTEX
  8
0
 10
2.40158
 20
3.54833
 30
0.0
 40
0.00393701
 41
0.00393701
  0
VERTEX
  8
0
 10
2.40158
 20
1.77669
 30
0.0
 40
0.00393701
 41
0.00393701
  0
VERTEX
  8
0
 10
2.40158
 20
1.77024
 30
0.0
 40
0.00393701
 41
0.00393701
  0
VERTEX
  8
0
 10
2.40662
 20
1.75088
 30
0.0
 40
0.00393701
 41
0.00393701
  0
VERTEX
  8
0
 10
2.42003
 20
1.73242
 30
0.0
 40
0.00393701
 41
0.00393701
  0
VERTEX
  8
0
 10
2.43892
 20
1.72136
 30
0.0
 40
0.00393701
 41
0.00393701
  0
VERTEX
  8
0
 10
2.46061
 20
1.71767
 30
0.0
 40
0.00393701
 41
0.00393701
  0
VERTEX
  8
0
 10
2.48232
 20
1.72136
 30
0.0
 40
0.00393701
 41
0.00393701
  0
VERTEX
  8
0
 10
2.50119
 20
1.73242
 30
0.0
 40
0.00393701
 41
0.00393701
  0
VERTEX
  8
0
 10
2.5146
 20
1.75088
 30
0.0
 40
0.00393701
 41
0.00393701
  0
VERTEX
  8
0
 10
2.51969
 20
1.77024
 30
0.0
 40
0.00393701
 41
0.00393701
  0
VERTEX
  8
0
 10
2.51969
 20
1.77669
 30
0.0
 40
0.00393701
 41
0.00393701
  0
SEQEND
 8
0
  0
POLYLINE
  8
0
 62
     252
 66
     1
 10
0
 20
0
 30
0.0
 70
     1
 40
0.283465
 41
0.283465
  0
VERTEX
  8
0
 10
2.24408
 20
1.77669
 30
0.0
 40
0.00393701
 41
0.00393701
  0
VERTEX
  8
0
 10
2.24408
 20
3.54833
 30
0.0
 40
0.00393701
 41
0.00393701
  0
VERTEX
  8
0
 10
2.24408
 20
3.55485
 30
0.0
 40
0.00393701
 41
0.00393701
  0
VERTEX
  8
0
 10
2.23899
 20
3.57422
 30
0.0
 40
0.00393701
 41
0.00393701
  0
VERTEX
  8
0
 10
2.22558
 20
3.59267
 30
0.0
 40
0.00393701
 41
0.00393701
  0
VERTEX
  8
0
 10
2.20671
 20
3.60374
 30
0.0
 40
0.00393701
 41
0.00393701
  0
VERTEX
  8
0
 10
2.185
 20
3.60742
 30
0.0
 40
0.00393701
 41
0.00393701
  0
VERTEX
  8
0
 10
2.16331
 20
3.60374
 30
0.0
 40
0.00393701
 41
0.00393701
  0
VERTEX
  8
0
 10
2.14442
 20
3.59267
 30
0.0
 40
0.00393701
 41
0.00393701
  0
VERTEX
  8
0
 10
2.13103
 20
3.57422
 30
0.0
 40
0.00393701
 41
0.00393701
  0
VERTEX
  8
0
 10
2.12597
 20
3.55485
 30
0.0
 40
0.00393701
 41
0.00393701
  0
VERTEX
  8
0
 10
2.12597
 20
3.54833
 30
0.0
 40
0.00393701
 41
0.00393701
  0
VERTEX
  8
0
 10
2.12597
 20
1.77669
 30
0.0
 40
0.00393701
 41
0.00393701
  0
VERTEX
  8
0
 10
2.12597
 20
1.77024
 30
0.0
 40
0.00393701
 41
0.00393701
  0
VERTEX
  8
0
 10
2.13103
 20
1.75088
 30
0.0
 40
0.00393701
 41
0.00393701
  0
VERTEX
  8
0
 10
2.14442
 20
1.73242
 30
0.0
 40
0.00393701
 41
0.00393701
  0
VERTEX
  8
0
 10
2.16331
 20
1.72136
 30
0.0
 40
0.00393701
 41
0.00393701
  0
VERTEX
  8
0
 10
2.185
 20
1.71767
 30
0.0
 40
0.00393701
 41
0.00393701
  0
VERTEX
  8
0
 10
2.20671
 20
1.72136
 30
0.0
 40
0.00393701
 41
0.00393701
  0
VERTEX
  8
0
 10
2.22558
 20
1.73242
 30
0.0
 40
0.00393701
 41
0.00393701
  0
VERTEX
  8
0
 10
2.23899
 20
1.75088
 30
0.0
 40
0.00393701
 41
0.00393701
  0
VERTEX
  8
0
 10
2.24408
 20
1.77024
 30
0.0
 40
0.00393701
 41
0.00393701
  0
VERTEX
  8
0
 10
2.24408
 20
1.77669
 30
0.0
 40
0.00393701
 41
0.00393701
  0
SEQEND
 8
0
  0
POLYLINE
  8
0
 62
     252
 66
     1
 10
0
 20
0
 30
0.0
 70
     1
 40
0.283465
 41
0.283465
  0
VERTEX
  8
0
 10
3.34646
 20
1.77669
 30
0.0
 40
0.00393701
 41
0.00393701
  0
VERTEX
  8
0
 10
3.34646
 20
3.54833
 30
0.0
 40
0.00393701
 41
0.00393701
  0
VERTEX
  8
0
 10
3.34646
 20
3.55485
 30
0.0
 40
0.00393701
 41
0.00393701
  0
VERTEX
  8
0
 10
3.34136
 20
3.57422
 30
0.0
 40
0.00393701
 41
0.00393701
  0
VERTEX
  8
0
 10
3.32796
 20
3.59267
 30
0.0
 40
0.00393701
 41
0.00393701
  0
VERTEX
  8
0
 10
3.30908
 20
3.60374
 30
0.0
 40
0.00393701
 41
0.00393701
  0
VERTEX
  8
0
 10
3.28737
 20
3.60742
 30
0.0
 40
0.00393701
 41
0.00393701
  0
VERTEX
  8
0
 10
3.26568
 20
3.60374
 30
0.0
 40
0.00393701
 41
0.00393701
  0
VERTEX
  8
0
 10
3.24681
 20
3.59267
 30
0.0
 40
0.00393701
 41
0.00393701
  0
VERTEX
  8
0
 10
3.2334
 20
3.57422
 30
0.0
 40
0.00393701
 41
0.00393701
  0
VERTEX
  8
0
 10
3.22835
 20
3.55485
 30
0.0
 40
0.00393701
 41
0.00393701
  0
VERTEX
  8
0
 10
3.22835
 20
3.54833
 30
0.0
 40
0.00393701
 41
0.00393701
  0
VERTEX
  8
0
 10
3.22835
 20
1.77669
 30
0.0
 40
0.00393701
 41
0.00393701
  0
VERTEX
  8
0
 10
3.22835
 20
1.77024
 30
0.0
 40
0.00393701
 41
0.00393701
  0
VERTEX
  8
0
 10
3.2334
 20
1.75088
 30
0.0
 40
0.00393701
 41
0.00393701
  0
VERTEX
  8
0
 10
3.24681
 20
1.73242
 30
0.0
 40
0.00393701
 41
0.00393701
  0
VERTEX
  8
0
 10
3.26568
 20
1.72136
 30
0.0
 40
0.00393701
 41
0.00393701
  0
VERTEX
  8
0
 10
3.28737
 20
1.71767
 30
0.0
 40
0.00393701
 41
0.00393701
  0
VERTEX
  8
0
 10
3.30908
 20
1.72136
 30
0.0
 40
0.00393701
 41
0.00393701
  0
VERTEX
  8
0
 10
3.32796
 20
1.73242
 30
0.0
 40
0.00393701
 41
0.00393701
  0
VERTEX
  8
0
 10
3.34136
 20
1.75088
 30
0.0
 40
0.00393701
 41
0.00393701
  0
VERTEX
  8
0
 10
3.34646
 20
1.77024
 30
0.0
 40
0.00393701
 41
0.00393701
  0
VERTEX
  8
0
 10
3.34646
 20
1.77669
 30
0.0
 40
0.00393701
 41
0.00393701
  0
SEQEND
 8
0
  0
POLYLINE
  8
0
 62
     252
 66
     1
 10
0
 20
0
 30
0.0
 70
     1
 40
0.283465
 41
0.283465
  0
VERTEX
  8
0
 10
4.44883
 20
1.77669
 30
0.0
 40
0.00393701
 41
0.00393701
  0
VERTEX
  8
0
 10
4.44883
 20
3.54833
 30
0.0
 40
0.00393701
 41
0.00393701
  0
VERTEX
  8
0
 10
4.44883
 20
3.55485
 30
0.0
 40
0.00393701
 41
0.00393701
  0
VERTEX
  8
0
 10
4.44374
 20
3.57422
 30
0.0
 40
0.00393701
 41
0.00393701
  0
VERTEX
  8
0
 10
4.43033
 20
3.59267
 30
0.0
 40
0.00393701
 41
0.00393701
  0
VERTEX
  8
0
 10
4.41146
 20
3.60374
 30
0.0
 40
0.00393701
 41
0.00393701
  0
VERTEX
  8
0
 10
4.38976
 20
3.60742
 30
0.0
 40
0.00393701
 41
0.00393701
  0
VERTEX
  8
0
 10
4.36806
 20
3.60374
 30
0.0
 40
0.00393701
 41
0.00393701
  0
VERTEX
  8
0
 10
4.34918
 20
3.59267
 30
0.0
 40
0.00393701
 41
0.00393701
  0
VERTEX
  8
0
 10
4.33578
 20
3.57422
 30
0.0
 40
0.00393701
 41
0.00393701
  0
VERTEX
  8
0
 10
4.33074
 20
3.55485
 30
0.0
 40
0.00393701
 41
0.00393701
  0
VERTEX
  8
0
 10
4.33074
 20
3.54833
 30
0.0
 40
0.00393701
 41
0.00393701
  0
VERTEX
  8
0
 10
4.33074
 20
1.77669
 30
0.0
 40
0.00393701
 41
0.00393701
  0
VERTEX
  8
0
 10
4.33074
 20
1.77024
 30
0.0
 40
0.00393701
 41
0.00393701
  0
VERTEX
  8
0
 10
4.33578
 20
1.75088
 30
0.0
 40
0.00393701
 41
0.00393701
  0
VERTEX
  8
0
 10
4.34918
 20
1.73242
 30
0.0
 40
0.00393701
 41
0.00393701
  0
VERTEX
  8
0
 10
4.36806
 20
1.72136
 30
0.0
 40
0.00393701
 41
0.00393701
  0
VERTEX
  8
0
 10
4.38976
 20
1.71767
 30
0.0
 40
0.00393701
 41
0.00393701
  0
VERTEX
  8
0
 10
4.41146
 20
1.72136
 30
0.0
 40
0.00393701
 41
0.00393701
  0
VERTEX
  8
0
 10
4.43033
 20
1.73242
 30
0.0
 40
0.00393701
 41
0.00393701
  0
VERTEX
  8
0
 10
4.44374
 20
1.75088
 30
0.0
 40
0.00393701
 41
0.00393701
  0
VERTEX
  8
0
 10
4.44883
 20
1.77024
 30
0.0
 40
0.00393701
 41
0.00393701
  0
VERTEX
  8
0
 10
4.44883
 20
1.77669
 30
0.0
 40
0.00393701
 41
0.00393701
  0
SEQEND
 8
0
  0
POLYLINE
  8
0
 62
     252
 66
     1
 10
0
 20
0
 30
0.0
 70
     1
 40
0.283465
 41
0.283465
  0
VERTEX
  8
0
 10
5.76774
 20
2.02192
 30
0.0
 40
0.00393701
 41
0.00393701
  0
VERTEX
  8
0
 10
5.76774
 20
2.01546
 30
0.0
 40
0.00393701
 41
0.00393701
  0
VERTEX
  8
0
 10
5.77279
 20
1.9961
 30
0.0
 40
0.00393701
 41
0.00393701
  0
VERTEX
  8
0
 10
5.78618
 20
1.97765
 30
0.0
 40
0.00393701
 41
0.00393701
  0
VERTEX
  8
0
 10
5.80507
 20
1.96658
 30
0.0
 40
0.00393701
 41
0.00393701
  0
VERTEX
  8
0
 10
5.82676
 20
1.96289
 30
0.0
 40
0.00393701
 41
0.00393701
  0
VERTEX
  8
0
 10
5.84847
 20
1.96658
 30
0.0
 40
0.00393701
 41
0.00393701
  0
VERTEX
  8
0
 10
5.86735
 20
1.97765
 30
0.0
 40
0.00393701
 41
0.00393701
  0
VERTEX
  8
0
 10
5.88075
 20
1.9961
 30
0.0
 40
0.00393701
 41
0.00393701
  0
VERTEX
  8
0
 10
5.88585
 20
2.01546
 30
0.0
 40
0.00393701
 41
0.00393701
  0
VERTEX
  8
0
 10
5.88585
 20
2.02192
 30
0.0
 40
0.00393701
 41
0.00393701
  0
VERTEX
  8
0
 10
5.88585
 20
2.02767
 30
0.0
 40
0.00393701
 41
0.00393701
  0
VERTEX
  8
0
 10
5.88118
 20
2.04492
 30
0.0
 40
0.00393701
 41
0.00393701
  0
VERTEX
  8
0
 10
5.86849
 20
2.06369
 30
0.0
 40
0.00393701
 41
0.00393701
  0
VERTEX
  8
0
 10
5.84972
 20
2.07633
 30
0.0
 40
0.00393701
 41
0.00393701
  0
VERTEX
  8
0
 10
5.83247
 20
2.08094
 30
0.0
 40
0.00393701
 41
0.00393701
  0
VERTEX
  8
0
 10
5.82676
 20
2.08094
 30
0.0
 40
0.00393701
 41
0.00393701
  0
VERTEX
  8
0
 10
5.82101
 20
2.08094
 30
0.0
 40
0.00393701
 41
0.00393701
  0
VERTEX
  8
0
 10
5.80376
 20
2.07633
 30
0.0
 40
0.00393701
 41
0.00393701
  0
VERTEX
  8
0
 10
5.785
 20
2.06369
 30
0.0
 40
0.00393701
 41
0.00393701
  0
VERTEX
  8
0
 10
5.77235
 20
2.04492
 30
0.0
 40
0.00393701
 41
0.00393701
  0
VERTEX
  8
0
 10
5.76774
 20
2.02767
 30
0.0
 40
0.00393701
 41
0.00393701
  0
VERTEX
  8
0
 10
5.76774
 20
2.02192
 30
0.0
 40
0.00393701
 41
0.00393701
  0
SEQEND
 8
0
  0
POLYLINE
  8
0
 62
     252
 66
     1
 10
0
 20
0
 30
0.0
 70
     1
 40
0.283465
 41
0.283465
  0
VERTEX
  8
0
 10
6.10238
 20
2.73958
 30
0.0
 40
0.00393701
 41
0.00393701
  0
VERTEX
  8
0
 10
6.10238
 20
2.76443
 30
0.0
 40
0.00393701
 41
0.00393701
  0
VERTEX
  8
0
 10
6.08963
 20
2.83892
 30
0.0
 40
0.00393701
 41
0.00393701
  0
VERTEX
  8
0
 10
6.053
 20
2.93044
 30
0.0
 40
0.00393701
 41
0.00393701
  0
VERTEX
  8
0
 10
5.99479
 20
3.01004
 30
0.0
 40
0.00393701
 41
0.00393701
  0
VERTEX
  8
0
 10
5.93837
 20
3.06033
 30
0.0
 40
0.00393701
 41
0.00393701
  0
VERTEX
  8
0
 10
5.91732
 20
3.07346
 30
0.0
 40
0.00393701
 41
0.00393701
  0
VERTEX
  8
0
 10
4.62332
 20
3.88222
 30
0.0
 40
0.00393701
 41
0.00393701
  0
VERTEX
  8
0
 10
4.60764
 20
3.89199
 30
0.0
 40
0.00393701
 41
0.00393701
  0
VERTEX
  8
0
 10
4.52317
 20
3.92681
 30
0.0
 40
0.00393701
 41
0.00393701
  0
VERTEX
  8
0
 10
4.44179
 20
3.94206
 30
0.0
 40
0.00393701
 41
0.00393701
  0
VERTEX
  8
0
 10
4.41465
 20
3.94206
 30
0.0
 40
0.00393701
 41
0.00393701
  0
VERTEX
  8
0
 10
1.88456
 20
3.94206
 30
0.0
 40
0.00393701
 41
0.00393701
  0
VERTEX
  8
0
 10
1.85736
 20
3.94206
 30
0.0
 40
0.00393701
 41
0.00393701
  0
VERTEX
  8
0
 10
1.77599
 20
3.92681
 30
0.0
 40
0.00393701
 41
0.00393701
  0
VERTEX
  8
0
 10
1.69151
 20
3.89199
 30
0.0
 40
0.00393701
 41
0.00393701
  0
VERTEX
  8
0
 10
1.67589
 20
3.88222
 30
0.0
 40
0.00393701
 41
0.00393701
  0
VERTEX
  8
0
 10
0.38189
 20
3.07346
 30
0.0
 40
0.00393701
 41
0.00393701
  0
VERTEX
  8
0
 10
0.360786
 20
3.06033
 30
0.0
 40
0.00393701
 41
0.00393701
  0
VERTEX
  8
0
 10
0.304363
 20
3.01004
 30
0.0
 40
0.00393701
 41
0.00393701
  0
VERTEX
  8
0
 10
0.246149
 20
2.93044
 30
0.0
 40
0.00393701
 41
0.00393701
  0
VERTEX
  8
0
 10
0.209526
 20
2.83892
 30
0.0
 40
0.00393701
 41
0.00393701
  0
VERTEX
  8
0
 10
0.196832
 20
2.76443
 30
0.0
 40
0.00393701
 41
0.00393701
  0
VERTEX
  8
0
 10
0.196832
 20
2.73958
 30
0.0
 40
0.00393701
 41
0.00393701
  0
VERTEX
  8
0
 10
0.196832
 20
1.77669
 30
0.0
 40
0.00393701
 41
0.00393701
  0
VERTEX
  8
0
 10
0.196832
 20
1.75689
 30
0.0
 40
0.00393701
 41
0.00393701
  0
VERTEX
  8
0
 10
0.204807
 20
1.69737
 30
0.0
 40
0.00393701
 41
0.00393701
  0
VERTEX
  8
0
 10
0.227756
 20
1.62349
 30
0.0
 40
0.00393701
 41
0.00393701
  0
VERTEX
  8
0
 10
0.264051
 20
1.55658
 30
0.0
 40
0.00393701
 41
0.00393701
  0
VERTEX
  8
0
 10
0.312121
 20
1.49832
 30
0.0
 40
0.00393701
 41
0.00393701
  0
VERTEX
  8
0
 10
0.370389
 20
1.45025
 30
0.0
 40
0.00393701
 41
0.00393701
  0
VERTEX
  8
0
 10
0.437283
 20
1.41396
 30
0.0
 40
0.00393701
 41
0.00393701
  0
VERTEX
  8
0
 10
0.511176
 20
1.391
 30
0.0
 40
0.00393701
 41
0.00393701
  0
VERTEX
  8
0
 10
0.570692
 20
1.38298
 30
0.0
 40
0.00393701
 41
0.00393701
  0
VERTEX
  8
0
 10
0.590549
 20
1.38298
 30
0.0
 40
0.00393701
 41
0.00393701
  0
VERTEX
  8
0
 10
5.70865
 20
1.38298
 30
0.0
 40
0.00393701
 41
0.00393701
  0
VERTEX
  8
0
 10
5.72846
 20
1.38298
 30
0.0
 40
0.00393701
 41
0.00393701
  0
VERTEX
  8
0
 10
5.78797
 20
1.391
 30
0.0
 40
0.00393701
 41
0.00393701
  0
VERTEX
  8
0
 10
5.86187
 20
1.41396
 30
0.0
 40
0.00393701
 41
0.00393701
  0
VERTEX
  8
0
 10
5.92876
 20
1.45025
 30
0.0
 40
0.00393701
 41
0.00393701
  0
VERTEX
  8
0
 10
5.98703
 20
1.49832
 30
0.0
 40
0.00393701
 41
0.00393701
  0
VERTEX
  8
0
 10
6.0351
 20
1.55658
 30
0.0
 40
0.00393701
 41
0.00393701
  0
VERTEX
  8
0
 10
6.0714
 20
1.62349
 30
0.0
 40
0.00393701
 41
0.00393701
  0
VERTEX
  8
0
 10
6.09435
 20
1.69737
 30
0.0
 40
0.00393701
 41
0.00393701
  0
VERTEX
  8
0
 10
6.10238
 20
1.75689
 30
0.0
 40
0.00393701
 41
0.00393701
  0
VERTEX
  8
0
 10
6.10238
 20
1.77669
 30
0.0
 40
0.00393701
 41
0.00393701
  0
VERTEX
  8
0
 10
6.10238
 20
2.73958
 30
0.0
 40
0.00393701
 41
0.00393701
  0
SEQEND
 8
0
  0
ENDSEC
  0
EOF
